<svg id="Layer_1" enable-background="new 0 0 496.018 496.018" height="512" viewBox="0 0 496.018 496.018" width="512" xmlns="http://www.w3.org/2000/svg"><g><path d="m184.007 322.349c0 33.508 41.15 50.312 65.387 26.665l61.061-59.591c23.422-22.866 23.426-59.939-.001-82.81l-61.062-59.591c-24.325-23.727-65.386-6.635-65.386 26.666 0 9.659-.025 14.225-.037 16.378-.015 2.744-.034 6.158 3.517 8.572 5.543 3.771 13.209-.593 12.478-7.473.001-.244.042-6.609.042-17.478 0-19.548 24.329-28.757 38.212-15.214l61.059 59.589c16.984 16.581 16.989 43.324.001 59.909l-61.059 59.589c-13.921 13.583-38.213 4.303-38.213-15.213 0-98.488 0-37.562 0-58.33 0-4.418-3.582-8-8-8s-8 3.582-8 8c.001 15.364.001-34.804.001 58.332z"/><path d="m423.372 72.656c-84.79-84.79-213.48-94.322-308.248-34.066-3.729 2.371-4.829 7.315-2.458 11.043 2.371 3.729 7.314 4.829 11.043 2.459 37.116-23.6 80.099-36.073 124.301-36.073 127.925 0 232 104.075 232 232s-104.075 232-232 232-232-104.075-232-232c0-43.729 12.227-86.32 35.358-123.17 2.349-3.741 1.22-8.68-2.522-11.028-3.743-2.351-8.681-1.221-11.029 2.522-24.734 39.4-37.807 84.934-37.807 131.676 0 137.062 110.919 248 248 248 137.061 0 248-110.919 248-248-.001-66.244-25.797-128.522-72.638-175.363z"/></g></svg>