<svg id="Layer_1" enable-background="new 0 0 496.214 496.214" height="512" viewBox="0 0 496.214 496.214" width="512" xmlns="http://www.w3.org/2000/svg"><g><path d="m89.559 267.187c15.852 11.89 38.497.57 38.497-19.247v-15.831c88.11 1.756 148.304 32.224 183.613 57.904 39.482 28.714 57.343 57.852 57.512 58.132 1.472 2.452 4.102 3.885 6.86 3.885 4.396 0 8-3.565 8-8.001 0-114.691-93.309-208-208-208h-47.985v-15.848c0-19.817-22.647-31.136-38.496-19.249l-76.727 57.545c-17.065 12.799-17.074 38.361 0 51.166zm-67.126-95.909 76.727-57.545c5.318-3.99 12.896-.211 12.896 6.448 0 30.007.003 18.987-.015 47.843-.003 4.418 3.577 8.002 7.995 8.005 4.436 0 8.002-3.592 8.005-7.995l.01-16.005h47.99c97.075 0 177.553 72.408 190.254 166.056-52.864-60.422-138.321-102.052-246.239-102.055-4.416 0-8 3.582-8 8v23.91c0 6.614-7.545 10.463-12.896 6.447l-76.727-57.545c-8.525-6.393-8.531-19.168 0-25.564z"/><path d="m483.684 170.781c-42.725-130.233-182.7-201.066-312.951-158.334-4.198 1.378-6.484 5.897-5.107 10.096 1.377 4.197 5.896 6.483 10.096 5.107 121.826-39.971 252.785 26.271 292.76 148.119 39.97 121.829-26.271 252.785-148.119 292.76-121.826 39.971-252.786-26.272-292.761-148.119-1.377-4.198-5.896-6.483-10.096-5.107-4.198 1.378-6.484 5.897-5.107 10.096 34.639 105.585 132.552 170.822 235.39 170.816 169.875-.007 288.216-165.95 235.895-325.434z"/></g></svg>