<?xml version="1.0" encoding="utf-8"?>
<!-- Generator: Adobe Illustrator 16.0.0, SVG Export Plug-In . SVG Version: 6.00 Build 0)  -->
<!DOCTYPE svg PUBLIC "-//W3C//DTD SVG 1.1//EN" "http://www.w3.org/Graphics/SVG/1.1/DTD/svg11.dtd">
<svg version="1.1" id="Layer_1" xmlns="http://www.w3.org/2000/svg" xmlns:xlink="http://www.w3.org/1999/xlink" x="0px" y="0px"
	 width="512px" height="133.597px" viewBox="0 0 512 133.597" enable-background="new 0 0 512 133.597" xml:space="preserve">
<path fill="none" d="M84.796,130.583c-21.677,0-43.354-0.005-65.031,0.021c-0.719,0.001-0.86-0.141-0.859-0.86
	c0.022-41.326,0.022-82.653,0-123.979c0-0.718,0.141-0.859,0.859-0.859c43.354,0.022,86.708,0.022,130.063,0
	c0.718,0,0.86,0.141,0.859,0.859c-0.022,41.326-0.022,82.653,0,123.979c0.001,0.719-0.141,0.861-0.859,0.86
	C128.151,130.578,106.474,130.583,84.796,130.583z M84.096,125.807c2.342,0,4.685-0.02,7.027,0.012
	c0.658,0.009,0.941-0.155,0.912-0.868c-0.052-1.222-0.033-2.447-0.013-3.67c0.009-0.539-0.193-0.743-0.737-0.73
	c-1.188,0.028-2.378-0.023-3.566,0.023c-0.693,0.027-0.994-0.138-0.984-0.911c0.04-2.936,0.031-5.874,0.005-8.81
	c-0.005-0.605,0.145-0.843,0.796-0.895c3.249-0.26,6.442-0.858,9.53-1.907c0.773-0.262,1.025-0.049,1.291,0.622
	c0.616,1.555,0.645,1.543-0.916,2.224c-0.064,0.028-0.122,0.076-0.188,0.091c-0.615,0.146-0.631,0.467-0.389,0.996
	c0.525,1.141,1.01,2.303,1.458,3.476c0.194,0.507,0.398,0.622,0.915,0.4c2.791-1.199,5.592-2.369,8.396-3.536
	c0.443-0.185,0.688-0.344,0.425-0.905c-0.548-1.169-1.044-2.365-1.501-3.572c-0.23-0.609-0.526-0.561-1.03-0.355
	c-1.755,0.716-1.738,0.688-2.467-1.087c-0.224-0.545-0.109-0.767,0.397-1.024c2.817-1.426,5.418-3.189,7.814-5.243
	c0.453-0.389,0.715-0.477,1.185,0.006c2.098,2.153,4.232,4.271,6.376,6.378c0.412,0.406,0.466,0.666,0.015,1.085
	c-0.92,0.857-1.776,1.783-2.683,2.655c-0.358,0.344-0.493,0.583-0.055,0.995c0.967,0.909,1.905,1.853,2.81,2.824
	c0.379,0.406,0.584,0.292,0.912-0.038c3.407-3.416,6.822-6.823,10.25-10.218c0.369-0.366,0.334-0.583-0.019-0.922
	c-0.959-0.919-1.903-1.854-2.815-2.819c-0.361-0.382-0.577-0.344-0.918,0.013c-0.918,0.959-1.878,1.879-2.808,2.828
	c-0.276,0.282-0.469,0.426-0.831,0.059c-2.209-2.24-4.439-4.46-6.673-6.675c-0.308-0.305-0.331-0.51-0.033-0.853
	c2.253-2.602,4.143-5.449,5.683-8.526c0.197-0.395,0.397-0.463,0.82-0.325c1.962,0.644,1.967,0.628,1.261,2.48
	c-0.012,0.032-0.027,0.064-0.044,0.094c-0.257,0.455-0.18,0.735,0.353,0.935c1.208,0.455,2.409,0.937,3.587,1.465
	c0.511,0.229,0.718,0.133,0.922-0.379c1.124-2.821,2.262-5.638,3.442-8.437c0.254-0.604,0.036-0.779-0.467-0.971
	c-1.076-0.41-2.159-0.816-3.193-1.318c-0.762-0.369-1.078-0.184-1.359,0.585c-0.552,1.506-0.595,1.491-2.125,0.858
	c-0.097-0.041-0.193-0.085-0.293-0.115c-0.502-0.146-0.619-0.414-0.449-0.939c0.984-3.035,1.618-6.145,1.82-9.333
	c0.037-0.572,0.238-0.776,0.827-0.771c3.041,0.026,6.083,0.023,9.125,0.004c0.544-0.003,0.733,0.166,0.717,0.719
	c-0.035,1.258,0.014,2.518-0.022,3.775c-0.018,0.599,0.188,0.789,0.782,0.769c1.223-0.041,2.448-0.048,3.67,0.002
	c0.671,0.027,0.817-0.236,0.814-0.85c-0.019-4.685-0.025-9.37,0.005-14.055c0.005-0.709-0.23-0.892-0.898-0.866
	c-1.187,0.047-2.379,0.05-3.565-0.002c-0.673-0.029-0.83,0.227-0.808,0.848c0.042,1.187-0.029,2.378,0.025,3.564
	c0.033,0.709-0.226,0.88-0.896,0.872c-2.937-0.031-5.874-0.038-8.81,0.005c-0.75,0.011-0.935-0.264-0.98-0.955
	c-0.211-3.186-0.826-6.303-1.868-9.32c-0.274-0.792-0.072-1.079,0.651-1.355c1.562-0.598,1.548-0.634,2.179,0.85
	c0.041,0.097,0.078,0.195,0.107,0.295c0.148,0.493,0.391,0.644,0.916,0.403c1.172-0.54,2.367-1.035,3.568-1.51
	c0.505-0.201,0.59-0.423,0.369-0.937c-1.203-2.789-2.378-5.59-3.531-8.399c-0.214-0.522-0.438-0.592-0.934-0.367
	c-1.111,0.505-2.235,0.993-3.382,1.408c-0.725,0.262-0.742,0.583-0.447,1.231c0.701,1.543,0.664,1.56-0.9,2.215
	c-0.097,0.041-0.204,0.062-0.291,0.118c-0.495,0.317-0.728,0.079-0.956-0.372c-1.462-2.88-3.274-5.53-5.376-7.978
	c-0.312-0.364-0.352-0.581,0.013-0.939c2.191-2.159,4.371-4.33,6.525-6.526c0.448-0.457,0.701-0.347,1.082,0.055
	c0.865,0.913,1.792,1.768,2.656,2.682c0.371,0.392,0.608,0.417,0.989,0.011c0.885-0.942,1.8-1.859,2.738-2.748
	c0.398-0.378,0.384-0.603-0.006-0.989c-3.401-3.372-6.788-6.759-10.16-10.16c-0.391-0.395-0.63-0.396-1.005-0.001
	c-0.841,0.888-1.699,1.763-2.595,2.594c-0.487,0.452-0.56,0.758-0.023,1.242c0.882,0.794,1.677,1.686,2.543,2.498
	c0.432,0.405,0.559,0.663,0.052,1.154c-2.182,2.119-4.321,4.281-6.461,6.442c-0.313,0.315-0.513,0.461-0.93,0.098
	c-2.597-2.256-5.454-4.132-8.522-5.686c-0.236-0.12-0.476-0.169-0.392-0.595c0.359-1.818,0.872-2.128,2.574-1.455
	c0.065,0.026,0.135,0.042,0.194,0.077c0.388,0.23,0.604,0.141,0.774-0.3c0.491-1.269,1.021-2.523,1.548-3.779
	c0.167-0.397,0.11-0.611-0.332-0.789c-2.883-1.158-5.758-2.337-8.626-3.528c-0.417-0.173-0.621-0.1-0.784,0.322
	c-0.388,1.01-0.81,2.007-1.22,3.009c-0.538,1.317-0.559,1.376,0.804,1.847c0.896,0.31,1.184,0.705,0.66,1.549
	c-0.127,0.205-0.228,0.44-0.282,0.675c-0.15,0.663-0.516,0.666-1.082,0.484c-3.004-0.964-6.085-1.572-9.233-1.789
	c-0.581-0.04-0.791-0.23-0.788-0.811c0.018-3.006,0.021-6.013,0-9.02c-0.004-0.625,0.186-0.864,0.84-0.839
	c1.222,0.046,2.447-0.002,3.67,0.018c0.5,0.008,0.784-0.098,0.77-0.685c-0.028-1.292-0.026-2.587,0.001-3.88
	c0.012-0.58-0.27-0.695-0.772-0.694c-4.755,0.01-9.51,0.012-14.264-0.003c-0.555-0.002-0.738,0.207-0.73,0.738
	c0.021,1.258,0.033,2.518-0.005,3.775c-0.02,0.634,0.266,0.762,0.818,0.75c1.188-0.026,2.378,0.019,3.566-0.017
	c0.598-0.017,0.888,0.113,0.881,0.795c-0.028,3.042-0.015,6.083-0.008,9.125c0.001,0.441-0.087,0.701-0.623,0.737
	c-3.397,0.229-6.709,0.913-9.938,1.985c-0.483,0.161-0.664,0.041-0.874-0.389c-0.867-1.777-0.892-1.792,0.94-2.6
	c0.534-0.235,0.68-0.445,0.417-1.007c-0.531-1.138-1.008-2.302-1.462-3.474c-0.188-0.483-0.354-0.653-0.902-0.416
	c-2.819,1.218-5.653,2.403-8.493,3.573c-0.472,0.194-0.545,0.396-0.338,0.851c0.491,1.081,0.993,2.164,1.371,3.286
	c0.288,0.853,0.629,0.902,1.417,0.561c1.601-0.695,1.259-0.941,2.03,0.796c0.071,0.16,0.118,0.333,0.204,0.482
	c0.257,0.444,0.077,0.668-0.342,0.88c-2.912,1.478-5.594,3.3-8.065,5.432c-0.314,0.271-0.519,0.352-0.855,0.01
	c-2.209-2.239-4.435-4.464-6.67-6.678c-0.329-0.326-0.312-0.52,0.013-0.832c0.957-0.92,1.873-1.884,2.825-2.81
	c0.332-0.323,0.439-0.551,0.041-0.927c-0.964-0.913-1.901-1.855-2.819-2.816c-0.345-0.36-0.575-0.367-0.929-0.011
	c-3.401,3.422-6.812,6.834-10.233,10.234c-0.35,0.348-0.379,0.557-0.007,0.912c0.96,0.917,1.892,1.865,2.808,2.826
	c0.333,0.35,0.544,0.395,0.904,0.012c0.91-0.967,1.879-1.877,2.805-2.831c0.334-0.344,0.565-0.385,0.932-0.014
	c2.186,2.214,4.39,4.411,6.601,6.6c0.318,0.315,0.317,0.539,0.028,0.874c-2.249,2.605-4.139,5.453-5.676,8.531
	c-0.192,0.384-0.36,0.465-0.801,0.309c-1.913-0.676-1.95-0.666-1.217-2.553c0.231-0.597,0.049-0.803-0.462-1
	c-1.141-0.438-2.285-0.873-3.393-1.384c-0.619-0.286-0.837-0.104-1.066,0.474c-1.096,2.758-2.212,5.508-3.37,8.24
	c-0.268,0.632-0.083,0.839,0.489,1.05c1.145,0.424,2.273,0.896,3.389,1.393c0.525,0.234,0.762,0.158,0.998-0.405
	c0.799-1.901,0.826-1.891,2.656-0.961c0.031,0.016,0.062,0.035,0.095,0.045c0.34,0.102,0.407,0.304,0.295,0.639
	c-1.053,3.165-1.666,6.418-1.922,9.74c-0.041,0.535-0.327,0.592-0.763,0.591c-3.042-0.012-6.084-0.019-9.125,0.002
	c-0.553,0.003-0.731-0.182-0.718-0.724c0.029-1.258-0.017-2.518,0.02-3.775c0.018-0.594-0.177-0.795-0.774-0.777
	c-1.258,0.038-2.517,0.021-3.775,0.005c-0.44-0.005-0.717,0.05-0.716,0.61c0.017,4.824,0.015,9.649,0.004,14.474
	c-0.001,0.484,0.145,0.686,0.658,0.675c1.293-0.027,2.587-0.03,3.88,0.003c0.558,0.014,0.73-0.192,0.72-0.729
	c-0.027-1.258,0.008-2.517-0.014-3.775c-0.008-0.492,0.064-0.767,0.667-0.762c3.076,0.025,6.153,0.02,9.229,0.002
	c0.485-0.003,0.683,0.159,0.719,0.645c0.257,3.429,0.939,6.776,2.021,10.04c0.125,0.378,0.034,0.525-0.321,0.712
	c-1.854,0.979-1.859,0.999-2.684-0.888c-0.218-0.5-0.404-0.72-0.996-0.44c-1.166,0.551-2.369,1.027-3.568,1.505
	c-0.463,0.185-0.546,0.409-0.348,0.872c1.208,2.824,2.399,5.657,3.574,8.496c0.195,0.469,0.398,0.542,0.862,0.331
	c1.175-0.534,2.366-1.039,3.573-1.493c0.61-0.229,0.565-0.517,0.357-1.025c-0.718-1.76-0.687-1.739,1.082-2.462
	c0.566-0.231,0.771-0.093,1.031,0.41c1.463,2.836,3.232,5.474,5.322,7.89c0.34,0.393,0.372,0.632-0.023,1.021
	c-2.193,2.157-4.371,4.33-6.521,6.529c-0.424,0.434-0.638,0.315-0.986-0.048c-0.895-0.934-1.839-1.82-2.733-2.755
	c-0.341-0.357-0.567-0.387-0.922-0.015c-0.917,0.961-1.854,1.904-2.818,2.817c-0.374,0.354-0.347,0.563,0.006,0.914
	c3.424,3.399,6.834,6.811,10.235,10.233c0.344,0.346,0.554,0.395,0.916,0.013c0.887-0.94,1.802-1.857,2.746-2.74
	c0.449-0.419,0.396-0.688-0.023-1.083c-0.916-0.863-1.781-1.778-2.682-2.658c-0.307-0.3-0.505-0.515-0.09-0.923
	c2.218-2.182,4.415-4.385,6.604-6.595c0.338-0.341,0.575-0.371,0.954-0.045c2.578,2.225,5.386,4.11,8.442,5.613
	c0.451,0.221,0.487,0.467,0.334,0.903c-0.656,1.874-0.654,1.904-2.521,1.155c-0.557-0.223-0.792-0.135-0.999,0.414
	c-0.457,1.208-0.959,2.399-1.463,3.589c-0.158,0.374-0.183,0.618,0.272,0.801c2.881,1.161,5.757,2.333,8.626,3.523
	c0.479,0.199,0.692,0.063,0.866-0.382c0.432-1.105,0.849-2.221,1.357-3.291c0.354-0.746,0.199-1.072-0.574-1.356
	c-1.51-0.555-1.493-0.6-0.898-2.052c0.053-0.129,0.126-0.252,0.161-0.387c0.131-0.51,0.368-0.621,0.907-0.443
	c3.03,1.002,6.153,1.581,9.33,1.851c0.552,0.046,0.794,0.18,0.789,0.789c-0.025,3.006-0.028,6.014,0.005,9.02
	c0.007,0.677-0.262,0.819-0.864,0.801c-1.188-0.036-2.378,0.019-3.566-0.022c-0.647-0.022-0.862,0.212-0.841,0.847
	c0.038,1.118,0.055,2.24-0.004,3.355c-0.042,0.799,0.174,1.1,1.034,1.078C79.55,125.767,81.824,125.807,84.096,125.807z"/>
<path fill-rule="evenodd" clip-rule="evenodd" fill="#F26722" d="M84.096,125.807c-2.272,0-4.546-0.04-6.817,0.02
	c-0.86,0.022-1.077-0.278-1.034-1.078c0.06-1.115,0.042-2.238,0.004-3.355c-0.021-0.634,0.194-0.869,0.841-0.847
	c1.188,0.041,2.378-0.013,3.566,0.022c0.602,0.019,0.872-0.124,0.864-0.801c-0.033-3.006-0.03-6.014-0.005-9.02
	c0.005-0.609-0.237-0.742-0.789-0.789c-3.177-0.27-6.299-0.849-9.33-1.851c-0.539-0.178-0.775-0.067-0.907,0.443
	c-0.034,0.134-0.107,0.257-0.161,0.387c-0.595,1.452-0.612,1.497,0.898,2.052c0.773,0.284,0.928,0.611,0.574,1.356
	c-0.508,1.07-0.925,2.185-1.357,3.291c-0.174,0.445-0.387,0.581-0.866,0.382c-2.869-1.191-5.745-2.363-8.626-3.523
	c-0.455-0.183-0.43-0.428-0.272-0.801c0.504-1.19,1.006-2.381,1.463-3.589c0.208-0.549,0.442-0.637,0.999-0.414
	c1.866,0.749,1.865,0.718,2.521-1.155c0.153-0.437,0.117-0.682-0.334-0.903c-3.056-1.503-5.864-3.389-8.442-5.613
	c-0.378-0.326-0.616-0.296-0.954,0.045c-2.189,2.21-4.387,4.414-6.604,6.595c-0.416,0.408-0.217,0.624,0.09,0.923
	c0.9,0.879,1.766,1.795,2.682,2.658c0.419,0.395,0.472,0.664,0.023,1.083c-0.944,0.883-1.859,1.8-2.746,2.74
	c-0.361,0.382-0.571,0.333-0.916-0.013c-3.4-3.422-6.811-6.834-10.235-10.233c-0.353-0.351-0.38-0.559-0.006-0.914
	c0.964-0.914,1.901-1.856,2.818-2.817c0.355-0.372,0.581-0.342,0.922,0.015c0.894,0.935,1.838,1.821,2.733,2.755
	c0.348,0.364,0.562,0.482,0.986,0.048c2.15-2.2,4.328-4.373,6.521-6.529c0.395-0.389,0.363-0.628,0.023-1.021
	c-2.09-2.416-3.859-5.053-5.322-7.89c-0.259-0.503-0.464-0.641-1.031-0.41c-1.769,0.723-1.8,0.702-1.082,2.462
	c0.208,0.509,0.253,0.796-0.357,1.025c-1.208,0.454-2.398,0.959-3.573,1.493c-0.463,0.21-0.667,0.138-0.862-0.331
	c-1.175-2.839-2.365-5.671-3.574-8.496c-0.198-0.462-0.115-0.687,0.348-0.872c1.199-0.478,2.402-0.954,3.568-1.505
	c0.592-0.28,0.778-0.06,0.996,0.44c0.825,1.887,0.83,1.866,2.684,0.888c0.355-0.187,0.446-0.333,0.321-0.712
	c-1.082-3.263-1.764-6.61-2.021-10.04c-0.036-0.485-0.233-0.647-0.719-0.645c-3.076,0.018-6.153,0.023-9.229-0.002
	c-0.603-0.005-0.676,0.27-0.667,0.762c0.022,1.258-0.013,2.517,0.014,3.775c0.011,0.538-0.162,0.744-0.72,0.729
	c-1.293-0.033-2.587-0.03-3.88-0.003c-0.513,0.011-0.659-0.19-0.658-0.675c0.011-4.825,0.013-9.649-0.004-14.474
	c-0.001-0.56,0.275-0.615,0.716-0.61c1.258,0.015,2.518,0.033,3.775-0.005c0.597-0.018,0.792,0.183,0.774,0.777
	c-0.037,1.257,0.009,2.517-0.02,3.775c-0.013,0.542,0.166,0.727,0.718,0.724c3.041-0.021,6.083-0.014,9.125-0.002
	c0.436,0.001,0.722-0.056,0.763-0.591c0.257-3.321,0.869-6.575,1.922-9.74c0.112-0.335,0.045-0.537-0.295-0.639
	c-0.033-0.01-0.063-0.029-0.095-0.045c-1.83-0.929-1.856-0.94-2.656,0.961c-0.236,0.562-0.473,0.639-0.998,0.405
	c-1.116-0.497-2.244-0.969-3.389-1.393c-0.572-0.211-0.757-0.418-0.489-1.05c1.157-2.732,2.273-5.482,3.37-8.24
	c0.229-0.577,0.447-0.76,1.066-0.474c1.108,0.511,2.252,0.946,3.393,1.384c0.511,0.197,0.693,0.403,0.462,1
	c-0.733,1.888-0.695,1.877,1.217,2.553c0.441,0.156,0.609,0.075,0.801-0.309c1.537-3.079,3.427-5.926,5.676-8.531
	c0.289-0.335,0.29-0.559-0.028-0.874c-2.211-2.189-4.416-4.385-6.601-6.6c-0.367-0.372-0.598-0.331-0.932,0.014
	c-0.925,0.953-1.895,1.863-2.805,2.831c-0.36,0.382-0.571,0.338-0.904-0.012c-0.916-0.961-1.848-1.91-2.808-2.826
	c-0.372-0.355-0.343-0.564,0.007-0.912c3.422-3.4,6.832-6.812,10.233-10.234c0.354-0.356,0.584-0.349,0.929,0.011
	c0.918,0.96,1.854,1.903,2.819,2.816c0.398,0.376,0.291,0.604-0.041,0.927c-0.953,0.926-1.868,1.89-2.825,2.81
	c-0.324,0.312-0.342,0.506-0.013,0.832c2.236,2.214,4.461,4.439,6.67,6.678c0.337,0.342,0.542,0.261,0.855-0.01
	c2.471-2.131,5.154-3.954,8.065-5.432c0.418-0.212,0.599-0.436,0.342-0.88c-0.086-0.15-0.133-0.323-0.204-0.482
	c-0.771-1.737-0.429-1.491-2.03-0.796c-0.789,0.342-1.13,0.292-1.417-0.561c-0.378-1.122-0.879-2.205-1.371-3.286
	c-0.207-0.456-0.134-0.657,0.338-0.851c2.84-1.17,5.674-2.355,8.493-3.573c0.548-0.237,0.715-0.067,0.902,0.416
	c0.454,1.171,0.931,2.336,1.462,3.474c0.263,0.562,0.117,0.772-0.417,1.007c-1.832,0.809-1.807,0.823-0.94,2.6
	c0.209,0.429,0.39,0.549,0.874,0.389c3.229-1.072,6.541-1.756,9.938-1.985c0.536-0.036,0.624-0.295,0.623-0.737
	c-0.007-3.042-0.02-6.083,0.008-9.125c0.006-0.683-0.283-0.812-0.881-0.795c-1.188,0.036-2.378-0.009-3.566,0.017
	c-0.552,0.012-0.838-0.116-0.818-0.75c0.038-1.257,0.026-2.517,0.005-3.775c-0.008-0.531,0.175-0.74,0.73-0.738
	c4.754,0.016,9.509,0.013,14.264,0.003c0.503-0.001,0.785,0.114,0.772,0.694c-0.027,1.293-0.029,2.588-0.001,3.88
	c0.014,0.587-0.27,0.693-0.77,0.685c-1.223-0.021-2.449,0.028-3.67-0.018c-0.654-0.025-0.844,0.214-0.84,0.839
	c0.021,3.007,0.019,6.014,0,9.02c-0.003,0.581,0.207,0.771,0.788,0.811c3.148,0.217,6.229,0.825,9.233,1.789
	c0.566,0.182,0.931,0.178,1.082-0.484c0.054-0.235,0.154-0.47,0.282-0.675c0.524-0.845,0.236-1.239-0.66-1.549
	c-1.363-0.47-1.342-0.53-0.804-1.847c0.41-1.002,0.832-2,1.22-3.009c0.163-0.422,0.366-0.496,0.784-0.322
	c2.869,1.191,5.743,2.371,8.626,3.528c0.442,0.177,0.5,0.391,0.332,0.789c-0.527,1.255-1.057,2.51-1.548,3.779
	c-0.17,0.441-0.386,0.53-0.774,0.3c-0.06-0.035-0.129-0.051-0.194-0.077c-1.702-0.673-2.215-0.363-2.574,1.455
	c-0.084,0.425,0.156,0.475,0.392,0.595c3.069,1.554,5.926,3.43,8.522,5.686c0.417,0.363,0.617,0.217,0.93-0.098
	c2.141-2.161,4.28-4.323,6.461-6.442c0.506-0.492,0.379-0.75-0.052-1.154c-0.866-0.812-1.661-1.703-2.543-2.498
	c-0.537-0.483-0.463-0.79,0.023-1.242c0.896-0.832,1.754-1.706,2.595-2.594c0.375-0.396,0.614-0.394,1.005,0.001
	c3.372,3.401,6.759,6.788,10.16,10.16c0.39,0.386,0.404,0.611,0.006,0.989c-0.938,0.889-1.853,1.806-2.738,2.748
	c-0.381,0.406-0.618,0.381-0.989-0.011c-0.863-0.915-1.791-1.769-2.656-2.682c-0.381-0.402-0.634-0.512-1.082-0.055
	c-2.154,2.196-4.334,4.367-6.525,6.526c-0.365,0.359-0.325,0.576-0.013,0.939c2.103,2.448,3.915,5.098,5.376,7.978
	c0.229,0.451,0.461,0.688,0.956,0.372c0.086-0.056,0.193-0.078,0.291-0.118c1.564-0.655,1.602-0.672,0.9-2.215
	c-0.294-0.648-0.278-0.969,0.447-1.231c1.147-0.416,2.271-0.903,3.382-1.408c0.496-0.225,0.72-0.155,0.934,0.367
	c1.153,2.81,2.328,5.611,3.531,8.399c0.222,0.514,0.137,0.736-0.369,0.937c-1.201,0.476-2.396,0.971-3.568,1.51
	c-0.524,0.241-0.767,0.09-0.916-0.403c-0.029-0.1-0.066-0.199-0.107-0.295c-0.631-1.483-0.617-1.447-2.179-0.85
	c-0.723,0.276-0.925,0.563-0.651,1.355c1.042,3.017,1.657,6.134,1.868,9.32c0.046,0.69,0.23,0.965,0.98,0.955
	c2.936-0.043,5.873-0.036,8.81-0.005c0.67,0.008,0.928-0.163,0.896-0.872c-0.054-1.186,0.017-2.377-0.025-3.564
	c-0.022-0.621,0.135-0.877,0.808-0.848c1.186,0.052,2.378,0.05,3.565,0.002c0.668-0.026,0.903,0.156,0.898,0.866
	c-0.03,4.685-0.024,9.37-0.005,14.055c0.003,0.614-0.143,0.877-0.814,0.85c-1.222-0.05-2.447-0.042-3.67-0.002
	c-0.594,0.02-0.8-0.17-0.782-0.769c0.036-1.257-0.013-2.518,0.022-3.775c0.016-0.553-0.173-0.723-0.717-0.719
	c-3.042,0.019-6.083,0.022-9.125-0.004c-0.589-0.005-0.791,0.199-0.827,0.771c-0.202,3.188-0.835,6.297-1.82,9.333
	c-0.17,0.525-0.053,0.792,0.449,0.939c0.1,0.029,0.196,0.074,0.293,0.115c1.529,0.632,1.572,0.648,2.125-0.858
	c0.282-0.769,0.597-0.955,1.359-0.585c1.035,0.502,2.117,0.908,3.193,1.318c0.503,0.191,0.721,0.366,0.467,0.971
	c-1.18,2.798-2.318,5.615-3.442,8.437c-0.204,0.513-0.411,0.608-0.922,0.379c-1.178-0.528-2.379-1.01-3.587-1.465
	c-0.533-0.2-0.61-0.48-0.353-0.935c0.017-0.03,0.032-0.062,0.044-0.094c0.706-1.852,0.702-1.837-1.261-2.48
	c-0.423-0.139-0.623-0.07-0.82,0.325c-1.541,3.077-3.43,5.924-5.683,8.526c-0.297,0.343-0.275,0.548,0.033,0.853
	c2.234,2.214,4.464,4.435,6.673,6.675c0.362,0.367,0.554,0.223,0.831-0.059c0.93-0.948,1.89-1.869,2.808-2.828
	c0.341-0.356,0.557-0.395,0.918-0.013c0.912,0.965,1.856,1.9,2.815,2.819c0.353,0.339,0.388,0.557,0.019,0.922
	c-3.428,3.395-6.843,6.802-10.25,10.218c-0.328,0.329-0.533,0.444-0.912,0.038c-0.905-0.971-1.843-1.915-2.81-2.824
	c-0.438-0.413-0.304-0.651,0.055-0.995c0.907-0.872,1.763-1.797,2.683-2.655c0.451-0.419,0.397-0.679-0.015-1.085
	c-2.144-2.107-4.278-4.226-6.376-6.378c-0.47-0.483-0.732-0.395-1.185-0.006c-2.396,2.054-4.997,3.816-7.814,5.243
	c-0.506,0.257-0.621,0.479-0.397,1.024c0.729,1.775,0.712,1.803,2.467,1.087c0.504-0.205,0.8-0.253,1.03,0.355
	c0.458,1.208,0.954,2.403,1.501,3.572c0.263,0.561,0.018,0.72-0.425,0.905c-2.804,1.167-5.605,2.337-8.396,3.536
	c-0.516,0.222-0.72,0.106-0.915-0.4c-0.448-1.173-0.933-2.335-1.458-3.476c-0.243-0.529-0.226-0.85,0.389-0.996
	c0.066-0.015,0.124-0.062,0.188-0.091c1.56-0.681,1.532-0.669,0.916-2.224c-0.266-0.67-0.518-0.884-1.291-0.622
	c-3.088,1.048-6.281,1.647-9.53,1.907c-0.652,0.052-0.802,0.29-0.796,0.895c0.026,2.937,0.035,5.874-0.005,8.81
	c-0.01,0.773,0.292,0.938,0.984,0.911c1.188-0.046,2.378,0.005,3.566-0.023c0.544-0.013,0.746,0.191,0.737,0.73
	c-0.02,1.223-0.039,2.449,0.013,3.67c0.03,0.713-0.254,0.877-0.912,0.868C88.781,125.787,86.438,125.807,84.096,125.807z
	 M84.112,104.828c20.249,0.033,36.693-16.346,36.753-36.604c0.059-20.251-16.468-36.839-36.685-36.821
	c-20.175,0.017-36.693,16.402-36.735,36.439C47.401,88.366,63.688,104.794,84.112,104.828z"/>
<path fill-rule="evenodd" clip-rule="evenodd" fill="none" d="M84.112,104.828c-20.424-0.033-36.711-16.461-36.667-36.986
	c0.042-20.038,16.56-36.422,36.735-36.439c20.217-0.018,36.744,16.57,36.685,36.821C120.806,88.482,104.361,104.86,84.112,104.828z
	 M60.581,60.282c-4.374-0.012-7.873,3.455-7.893,7.821c-0.02,4.344,3.494,7.898,7.823,7.914c4.33,0.016,7.888-3.515,7.907-7.844
	C68.438,63.831,64.925,60.294,60.581,60.282z M107.789,60.285c-4.375-0.016-7.896,3.466-7.9,7.811
	c-0.004,4.366,3.498,7.914,7.816,7.92c4.346,0.006,7.904-3.517,7.915-7.837C115.632,63.82,112.14,60.3,107.789,60.285z
	 M91.995,44.586c0.011-4.374-3.44-7.884-7.798-7.934c-4.333-0.05-7.961,3.582-7.931,7.937c0.03,4.301,3.527,7.782,7.829,7.792
	C88.492,52.392,91.985,48.946,91.995,44.586z M91.994,91.75c-0.001-4.357-3.51-7.895-7.834-7.899
	c-4.318-0.004-7.889,3.556-7.893,7.87c-0.004,4.346,3.51,7.859,7.864,7.861C88.52,99.582,91.995,96.121,91.994,91.75z
	 M91.995,68.161c0.016-4.373-3.461-7.871-7.828-7.876c-4.354-0.005-7.887,3.493-7.908,7.831c-0.021,4.303,3.555,7.896,7.862,7.901
	C88.473,76.021,91.979,72.521,91.995,68.161z M107.727,86.449c-0.021-2.936-2.349-5.213-5.299-5.186
	c-2.856,0.027-5.186,2.376-5.182,5.225c0.003,2.89,2.389,5.27,5.273,5.261C105.421,91.739,107.748,89.371,107.727,86.449z
	 M107.728,49.782c0.002-2.936-2.309-5.236-5.254-5.23c-2.865,0.005-5.188,2.306-5.231,5.18c-0.042,2.864,2.358,5.298,5.233,5.305
	C105.388,55.045,107.725,52.706,107.728,49.782z M65.752,81.263c-2.859,0.01-5.191,2.327-5.222,5.188
	c-0.031,2.872,2.352,5.282,5.242,5.3c2.896,0.018,5.24-2.338,5.239-5.267C71.01,83.546,68.7,81.252,65.752,81.263z M60.375,49.616
	c0.021,2.935,2.362,5.253,5.275,5.225c2.899-0.028,5.257-2.439,5.203-5.317c-0.055-2.915-2.431-5.212-5.347-5.17
	C62.644,44.394,60.354,46.742,60.375,49.616z"/>
<path fill-rule="evenodd" clip-rule="evenodd" fill="#F26722" d="M60.581,60.282c4.344,0.012,7.857,3.549,7.837,7.891
	c-0.019,4.329-3.578,7.859-7.907,7.844c-4.329-0.016-7.842-3.57-7.823-7.914C52.708,63.737,56.207,60.27,60.581,60.282z
	 M60.626,65.534c-1.441-0.039-2.64,1.076-2.689,2.5c-0.05,1.471,1.13,2.723,2.581,2.737c1.396,0.014,2.616-1.173,2.652-2.579
	C63.207,66.78,62.051,65.572,60.626,65.534z"/>
<path fill-rule="evenodd" clip-rule="evenodd" fill="#F26722" d="M107.789,60.285c4.351,0.016,7.843,3.536,7.831,7.895
	c-0.011,4.32-3.569,7.843-7.915,7.837c-4.318-0.006-7.82-3.555-7.816-7.92C99.893,63.75,103.414,60.269,107.789,60.285z
	 M105.134,68.096c-0.026,1.414,1.125,2.622,2.543,2.668c1.434,0.047,2.692-1.184,2.693-2.636c0.001-1.408-1.186-2.594-2.605-2.602
	C106.334,65.519,105.16,66.665,105.134,68.096z"/>
<path fill-rule="evenodd" clip-rule="evenodd" fill="#F26722" d="M91.995,44.586c-0.01,4.359-3.503,7.806-7.9,7.795
	c-4.301-0.01-7.799-3.491-7.829-7.792c-0.031-4.355,3.598-7.987,7.931-7.937C88.555,36.702,92.006,40.213,91.995,44.586z
	 M86.746,44.473c-0.024-1.42-1.232-2.598-2.638-2.571c-1.399,0.027-2.597,1.251-2.586,2.643c0.012,1.478,1.219,2.632,2.709,2.59
	C85.675,47.095,86.771,45.936,86.746,44.473z"/>
<path fill-rule="evenodd" clip-rule="evenodd" fill="#F26722" d="M91.994,91.75c0.001,4.372-3.474,7.833-7.863,7.832
	c-4.354-0.002-7.869-3.515-7.864-7.861c0.004-4.313,3.575-7.874,7.893-7.87C88.484,83.854,91.993,87.393,91.994,91.75z
	 M86.745,91.708c-0.01-1.426-1.186-2.602-2.602-2.602c-1.387,0-2.611,1.212-2.63,2.605c-0.02,1.453,1.203,2.648,2.684,2.625
	C85.64,94.313,86.755,93.163,86.745,91.708z"/>
<path fill-rule="evenodd" clip-rule="evenodd" fill="#F26722" d="M91.995,68.161c-0.016,4.361-3.522,7.861-7.874,7.856
	c-4.307-0.005-7.882-3.599-7.862-7.901c0.021-4.338,3.554-7.836,7.908-7.831C88.534,60.29,92.011,63.788,91.995,68.161z
	 M86.745,68.099c-0.019-1.442-1.171-2.573-2.615-2.565c-1.426,0.007-2.606,1.18-2.608,2.593c-0.003,1.446,1.266,2.69,2.689,2.64
	C85.639,70.715,86.763,69.532,86.745,68.099z"/>
<path fill-rule="evenodd" clip-rule="evenodd" fill="#F26722" d="M107.727,86.449c0.021,2.922-2.306,5.291-5.208,5.3
	c-2.884,0.009-5.27-2.371-5.273-5.261c-0.003-2.849,2.326-5.198,5.182-5.225C105.378,81.236,107.706,83.513,107.727,86.449z"/>
<path fill-rule="evenodd" clip-rule="evenodd" fill="#F26722" d="M107.728,49.782c-0.002,2.924-2.339,5.263-5.252,5.255
	c-2.875-0.007-5.275-2.441-5.233-5.305c0.043-2.874,2.366-5.174,5.231-5.18C105.419,44.546,107.729,46.847,107.728,49.782z"/>
<path fill-rule="evenodd" clip-rule="evenodd" fill="#F26722" d="M65.752,81.263c2.948-0.011,5.258,2.283,5.259,5.221
	c0.001,2.929-2.343,5.285-5.239,5.267c-2.891-0.018-5.273-2.428-5.242-5.3C60.561,83.59,62.893,81.273,65.752,81.263z"/>
<path fill-rule="evenodd" clip-rule="evenodd" fill="#F26722" d="M60.375,49.616c-0.021-2.874,2.268-5.222,5.131-5.263
	c2.916-0.042,5.292,2.256,5.347,5.17c0.055,2.878-2.304,5.289-5.203,5.317C62.737,54.869,60.396,52.551,60.375,49.616z"/>
<path fill-rule="evenodd" clip-rule="evenodd" fill="none" d="M60.626,65.534c1.424,0.038,2.58,1.246,2.544,2.658
	c-0.036,1.405-1.256,2.592-2.652,2.579c-1.451-0.014-2.631-1.266-2.581-2.737C57.986,66.61,59.186,65.495,60.626,65.534z"/>
<path fill-rule="evenodd" clip-rule="evenodd" fill="none" d="M105.134,68.096c0.026-1.431,1.2-2.577,2.631-2.569
	c1.419,0.008,2.607,1.193,2.605,2.602c-0.001,1.452-1.259,2.683-2.693,2.636C106.259,70.718,105.108,69.51,105.134,68.096z"/>
<path fill-rule="evenodd" clip-rule="evenodd" fill="none" d="M86.746,44.473c0.025,1.462-1.071,2.622-2.515,2.662
	c-1.49,0.042-2.697-1.113-2.709-2.59c-0.011-1.392,1.187-2.616,2.586-2.643C85.514,41.875,86.722,43.053,86.746,44.473z"/>
<path fill-rule="evenodd" clip-rule="evenodd" fill="none" d="M86.745,91.708c0.01,1.455-1.105,2.605-2.548,2.628
	c-1.481,0.023-2.703-1.172-2.684-2.625c0.019-1.393,1.243-2.605,2.63-2.605C85.559,89.106,86.735,90.282,86.745,91.708z"/>
<path fill-rule="evenodd" clip-rule="evenodd" fill="none" d="M86.745,68.099c0.019,1.434-1.105,2.617-2.535,2.667
	c-1.423,0.05-2.692-1.194-2.689-2.64c0.002-1.413,1.182-2.585,2.608-2.593C85.573,65.525,86.726,66.656,86.745,68.099z"/>
<g>
	<path d="M183.029,26.671c-3.032-3.699-6.776-5.549-11.233-5.549c-1.962,0-3.778,0.357-5.449,1.07
		c-1.672,0.713-3.109,1.683-4.312,2.908c-1.204,1.227-2.151,2.686-2.842,4.38c-0.692,1.694-1.037,3.521-1.037,5.482
		c0,2.006,0.345,3.856,1.037,5.55c0.69,1.694,1.648,3.166,2.875,4.413c1.226,1.249,2.663,2.229,4.312,2.942
		c1.648,0.714,3.432,1.07,5.349,1.07c4.189,0,7.957-1.782,11.3-5.349V59.1l-1.337,0.468c-2.006,0.712-3.878,1.237-5.616,1.571
		c-1.739,0.334-3.455,0.501-5.148,0.501c-3.477,0-6.81-0.658-9.996-1.973c-3.188-1.314-5.996-3.165-8.425-5.549
		c-2.43-2.384-4.379-5.215-5.85-8.492c-1.471-3.276-2.207-6.854-2.207-10.731s0.724-7.432,2.173-10.665
		c1.448-3.231,3.387-6.018,5.817-8.357c2.429-2.34,5.249-4.167,8.458-5.483c3.209-1.314,6.574-1.972,10.096-1.972
		c2.006,0,3.978,0.212,5.917,0.635c1.939,0.424,3.979,1.082,6.118,1.973V26.671z"/>
	<path d="M189.781,35.029c0-3.744,0.69-7.231,2.073-10.464c1.381-3.231,3.298-6.051,5.75-8.458c2.451-2.407,5.382-4.29,8.792-5.65
		c3.41-1.359,7.165-2.039,11.266-2.039c4.056,0,7.8,0.68,11.233,2.039c3.432,1.36,6.385,3.243,8.859,5.65
		c2.474,2.407,4.401,5.227,5.784,8.458c1.381,3.232,2.072,6.72,2.072,10.464s-0.691,7.232-2.072,10.464
		c-1.382,3.232-3.31,6.051-5.784,8.458c-2.474,2.407-5.427,4.291-8.859,5.65c-3.433,1.359-7.177,2.04-11.233,2.04
		c-4.102,0-7.856-0.68-11.266-2.04c-3.41-1.359-6.341-3.243-8.792-5.65c-2.452-2.407-4.369-5.226-5.75-8.458
		C190.471,42.262,189.781,38.773,189.781,35.029z M203.487,35.029c0,2.006,0.378,3.856,1.137,5.55
		c0.757,1.694,1.782,3.166,3.076,4.413c1.292,1.249,2.797,2.218,4.513,2.909c1.715,0.691,3.532,1.036,5.449,1.036
		c1.916,0,3.733-0.345,5.449-1.036c1.716-0.69,3.231-1.66,4.547-2.909c1.314-1.247,2.351-2.718,3.109-4.413
		c0.757-1.694,1.137-3.544,1.137-5.55s-0.379-3.855-1.137-5.549c-0.758-1.694-1.795-3.165-3.109-4.413
		c-1.315-1.248-2.831-2.217-4.547-2.909c-1.716-0.69-3.533-1.036-5.449-1.036c-1.917,0-3.734,0.346-5.449,1.036
		c-1.716,0.692-3.221,1.661-4.513,2.909c-1.293,1.249-2.318,2.719-3.076,4.413C203.866,31.174,203.487,33.023,203.487,35.029z"/>
	<path d="M260.521,9.822l12.169,30.69l12.236-30.69h14.241l-21.262,50.414h-10.431L246.279,9.822H260.521z"/>
	<path d="M317.553,9.822v50.414h-13.104V9.822H317.553z"/>
	<path d="M328.116,9.822h19.39c3.432,0,6.653,0.692,9.662,2.073c3.009,1.382,5.638,3.221,7.89,5.516
		c2.25,2.296,4.021,4.971,5.315,8.023c1.292,3.054,1.938,6.251,1.938,9.595c0,3.299-0.635,6.475-1.905,9.528
		c-1.271,3.054-3.031,5.74-5.282,8.057c-2.251,2.318-4.881,4.168-7.89,5.549c-3.009,1.382-6.252,2.073-9.729,2.073h-19.39V9.822z
		 M341.221,49.137h3.009c2.273,0,4.302-0.356,6.085-1.07c1.782-0.712,3.286-1.693,4.513-2.942c1.226-1.248,2.162-2.73,2.809-4.446
		c0.646-1.715,0.97-3.599,0.97-5.65c0-2.006-0.335-3.878-1.003-5.616c-0.669-1.739-1.616-3.231-2.842-4.48
		c-1.227-1.248-2.731-2.229-4.514-2.942c-1.783-0.712-3.789-1.07-6.018-1.07h-3.009V49.137z"/>
	<path d="M375.388,37.303h19.189v10.096h-19.189V37.303z"/>
	<path d="M412.295,20.921h-7.355V9.822h20.46v50.414h-13.104V20.921z"/>
	<path d="M445.793,60.236l14.309-16.448h-0.268c-1.249,0.759-2.273,1.215-3.076,1.371c-0.802,0.156-1.516,0.234-2.14,0.234
		c-2.451,0-4.713-0.468-6.786-1.404c-2.072-0.936-3.856-2.217-5.349-3.845c-1.494-1.626-2.664-3.532-3.511-5.716
		c-0.847-2.184-1.271-4.524-1.271-7.021c0-2.675,0.49-5.159,1.472-7.455c0.979-2.295,2.396-4.301,4.245-6.018
		c1.85-1.716,4.089-3.064,6.72-4.045c2.63-0.98,5.594-1.471,8.893-1.471c3.344,0,6.329,0.491,8.96,1.471
		c2.629,0.981,4.869,2.318,6.72,4.012c1.849,1.695,3.265,3.667,4.245,5.917c0.98,2.251,1.472,4.647,1.472,7.188
		c0,2.853-0.636,5.94-1.906,9.26c-1.271,3.321-3.221,6.586-5.851,9.795l-11.7,14.175H445.793z M467.456,27.14
		c0-1.159-0.224-2.24-0.669-3.243s-1.048-1.883-1.805-2.641c-0.759-0.757-1.639-1.359-2.642-1.805
		c-1.003-0.445-2.084-0.669-3.242-0.669c-1.16,0-2.24,0.224-3.243,0.669c-1.003,0.446-1.884,1.048-2.641,1.805
		c-0.759,0.758-1.36,1.638-1.806,2.641c-0.446,1.003-0.669,2.084-0.669,3.243c0,1.16,0.223,2.24,0.669,3.243
		c0.445,1.003,1.047,1.884,1.806,2.641c0.757,0.758,1.638,1.36,2.641,1.805c1.003,0.446,2.083,0.669,3.243,0.669
		c1.158,0,2.239-0.223,3.242-0.669c1.003-0.445,1.883-1.047,2.642-1.805c0.757-0.757,1.359-1.638,1.805-2.641
		S467.456,28.299,467.456,27.14z"/>
</g>
<g>
	<path d="M174.262,73.676c-1.92-0.223-3.729-0.335-5.425-0.335c-6.073,0.09-10.74,1.987-13.999,5.693
		c-3.305,3.707-4.957,8.53-4.957,14.468c0,5.984,1.63,10.807,4.89,14.468c3.215,3.751,7.904,5.649,14.066,5.693
		c1.607,0,3.416-0.156,5.425-0.469c1.965-0.268,3.639-0.781,5.024-1.541l0.268,4.019c-1.385,0.715-3.104,1.228-5.158,1.541
		c-2.1,0.312-3.952,0.469-5.56,0.469c-7.413-0.09-13.173-2.321-17.281-6.698c-4.198-4.331-6.296-10.158-6.296-17.482
		c0.044-7.234,2.166-13.062,6.363-17.482c4.153-4.376,9.89-6.608,17.214-6.698c1.518,0,3.371,0.112,5.56,0.335
		c2.144,0.268,3.862,0.737,5.158,1.407l-0.268,4.287C177.767,74.546,176.092,73.989,174.262,73.676z"/>
	<path d="M192.681,87.34c2.589-3.527,6.608-5.335,12.057-5.425c5.536,0.09,9.6,1.898,12.19,5.425
		c2.5,3.439,3.751,7.592,3.751,12.458c0,4.779-1.25,8.909-3.751,12.392c-2.59,3.573-6.654,5.402-12.19,5.492
		c-5.449-0.09-9.468-1.919-12.057-5.492c-2.59-3.483-3.885-7.613-3.885-12.392C188.796,94.932,190.091,90.779,192.681,87.34z
		 M196.365,109.846c1.875,2.77,4.666,4.176,8.373,4.22c3.706-0.044,6.541-1.451,8.506-4.22c1.875-2.634,2.813-5.983,2.813-10.047
		c0-4.062-0.938-7.457-2.813-10.181c-1.965-2.679-4.801-4.041-8.506-4.086c-3.707,0.045-6.498,1.407-8.373,4.086
		c-1.965,2.725-2.947,6.119-2.947,10.181C193.418,103.862,194.4,107.211,196.365,109.846z"/>
	<path d="M228.65,90.354c0-3.17-0.09-5.715-0.268-7.636h4.22v6.564h0.134c0.804-2.009,1.942-3.728,3.416-5.157
		c1.429-1.429,3.215-2.166,5.358-2.21c1.116,0.045,2.099,0.179,2.947,0.402v4.421c-0.938-0.268-1.965-0.402-3.081-0.402
		c-1.652,0.045-3.014,0.447-4.086,1.206c-1.072,0.804-1.942,1.898-2.612,3.282c-0.626,1.339-1.072,2.791-1.339,4.354
		c-0.313,1.653-0.469,3.26-0.469,4.823v16.879h-4.22V90.354z"/>
	<path d="M252.228,87.34c2.589-3.527,6.608-5.335,12.058-5.425c5.535,0.09,9.6,1.898,12.189,5.425
		c2.5,3.439,3.752,7.592,3.752,12.458c0,4.779-1.252,8.909-3.752,12.392c-2.59,3.573-6.654,5.402-12.189,5.492
		c-5.449-0.09-9.468-1.919-12.058-5.492c-2.59-3.483-3.885-7.613-3.885-12.392C248.343,94.932,249.638,90.779,252.228,87.34z
		 M255.912,109.846c1.875,2.77,4.667,4.176,8.374,4.22c3.705-0.044,6.541-1.451,8.506-4.22c1.875-2.634,2.812-5.983,2.812-10.047
		c0-4.062-0.938-7.457-2.812-10.181c-1.965-2.679-4.801-4.041-8.506-4.086c-3.707,0.045-6.498,1.407-8.374,4.086
		c-1.965,2.725-2.947,6.119-2.947,10.181C252.964,103.862,253.946,107.211,255.912,109.846z"/>
	<path d="M288.197,90.756c0-2.634-0.091-5.313-0.269-8.038h4.086v6.095h0.134c0.402-0.804,0.871-1.607,1.407-2.411
		c0.535-0.804,1.205-1.541,2.009-2.21c0.848-0.714,1.897-1.273,3.148-1.675c1.25-0.402,2.746-0.603,4.488-0.603
		c4.196,0.045,7.211,1.295,9.042,3.751c1.741,2.411,2.612,5.538,2.612,9.377v21.836h-4.22V96.115c0-3.259-0.603-5.85-1.809-7.77
		c-1.296-1.831-3.395-2.768-6.296-2.813c-3.751,0.09-6.387,1.43-7.904,4.019c-0.804,1.206-1.362,2.523-1.675,3.952
		c-0.357,1.474-0.535,2.97-0.535,4.488v18.889h-4.22V90.756z"/>
	<path d="M345.064,111.386h-0.134c-0.982,2.01-2.479,3.55-4.487,4.622c-2.01,1.072-4.131,1.629-6.363,1.674
		c-2.368-0.045-4.287-0.425-5.761-1.139c-1.519-0.67-2.68-1.518-3.483-2.545c-1.43-2.232-2.1-4.22-2.009-5.961
		c0-2.857,0.691-5.112,2.076-6.765c1.34-1.651,3.058-2.835,5.157-3.55c2.099-0.759,4.376-1.25,6.832-1.474
		c2.412-0.134,4.733-0.201,6.967-0.201h0.804v-1.741c0.134-5.85-2.457-8.775-7.771-8.775c-3.527-0.044-6.877,0.894-10.047,2.813
		v-4.086c3.17-1.474,6.52-2.254,10.047-2.344c8.082-0.089,12.079,4.153,11.99,12.727v15.071c-0.045,2.59,0.066,4.979,0.335,7.167
		h-4.153V111.386z M344.663,99.665h-1.206c-1.831,0-3.662,0.045-5.492,0.134c-1.921,0.179-3.662,0.559-5.225,1.139
		c-1.563,0.536-2.813,1.362-3.751,2.478c-1.028,1.117-1.541,2.612-1.541,4.488c0,2.188,0.714,3.751,2.144,4.689
		c1.34,0.982,2.991,1.474,4.957,1.474c2.455,0,4.397-0.491,5.827-1.474c1.384-0.938,2.389-2.054,3.014-3.349
		c0.67-1.384,1.049-2.747,1.139-4.086c0.09-1.384,0.135-2.522,0.135-3.416V99.665z"/>
	<path d="M370.785,116.879h-4.957L354.24,82.718h4.622l9.444,29.539h0.134l9.913-29.539h4.421L370.785,116.879z"/>
	<path d="M392.889,73.609h-4.22v-5.626h4.22V73.609z M388.669,82.718h4.22v34.161h-4.22V82.718z"/>
	<path d="M403.538,90.354c0-3.17-0.091-5.715-0.269-7.636h4.22v6.564h0.134c0.805-2.009,1.943-3.728,3.417-5.157
		c1.428-1.429,3.215-2.166,5.358-2.21c1.115,0.045,2.098,0.179,2.947,0.402v4.421c-0.938-0.268-1.966-0.402-3.081-0.402
		c-1.653,0.045-3.015,0.447-4.086,1.206c-1.072,0.804-1.943,1.898-2.612,3.282c-0.626,1.339-1.072,2.791-1.34,4.354
		c-0.313,1.653-0.469,3.26-0.469,4.823v16.879h-4.22V90.354z"/>
	<path d="M452.5,108.841c-0.045,2.59,0.044,5.27,0.268,8.038h-4.086v-6.095h-0.134c-0.312,0.76-0.736,1.519-1.272,2.277
		c-0.536,0.804-1.229,1.563-2.076,2.277c-0.849,0.67-1.898,1.206-3.148,1.607c-1.251,0.491-2.77,0.737-4.555,0.737
		c-4.152-0.045-7.145-1.294-8.976-3.751c-1.831-2.411-2.725-5.537-2.679-9.377V82.718h4.22v20.764c0,3.26,0.646,5.806,1.942,7.636
		c1.249,1.965,3.304,2.947,6.162,2.947c1.919,0,3.55-0.402,4.89-1.206c1.34-0.759,2.366-1.741,3.081-2.947
		c0.804-1.25,1.361-2.589,1.675-4.019c0.312-1.429,0.469-2.857,0.469-4.287V82.718h4.22V108.841z"/>
	<path d="M469.38,114.066c2.099,0,3.885-0.558,5.358-1.675c1.429-1.027,2.165-2.5,2.211-4.421c-0.046-2.009-0.871-3.594-2.479-4.755
		c-1.607-1.116-3.506-2.121-5.693-3.014c-1.028-0.491-2.01-1.005-2.947-1.541c-0.938-0.536-1.832-1.139-2.68-1.808
		c-0.76-0.714-1.385-1.541-1.875-2.479c-0.492-0.893-0.737-1.942-0.737-3.148c0.044-3.393,1.206-5.805,3.483-7.234
		c2.188-1.383,4.732-2.076,7.636-2.076c0.981,0,2.254,0.09,3.818,0.268c1.562,0.268,3.103,0.692,4.621,1.272l-0.401,3.684
		c-2.457-1.027-4.979-1.562-7.569-1.608c-2.188,0-3.93,0.402-5.225,1.206c-0.67,0.402-1.184,0.96-1.54,1.674
		c-0.402,0.715-0.604,1.653-0.604,2.813c0,0.715,0.245,1.384,0.737,2.009c0.49,0.581,1.139,1.117,1.942,1.607
		c0.804,0.447,1.719,0.916,2.746,1.407c1.026,0.447,2.031,0.938,3.015,1.474c2.231,0.938,4.175,2.188,5.827,3.751
		c1.651,1.563,2.5,3.729,2.545,6.497c0,1.787-0.357,3.282-1.071,4.488c-0.76,1.251-1.72,2.255-2.881,3.014
		c-2.501,1.474-5.157,2.21-7.971,2.21c-3.305,0-6.497-0.536-9.578-1.607l0.402-4.153C463.061,113.307,466.03,114.021,469.38,114.066
		z"/>
</g>
</svg>
